<svg fill="none" height="48" viewBox="0 0 163 48" width="163" xmlns="http://www.w3.org/2000/svg"><path d="m-.00195312 17.8433 30.90545312-17.8433-.8189 12.6994-26.32058 15.1961z" fill="#444ce7"/><path d="m3.76367 27.8951 21.73573-12.5492-.8189 12.6994-17.15086 9.902z" fill="#444ce7" opacity=".5"/><path d="m7.52734 37.9477 12.56596-7.255-.8189 12.6994-7.9811 4.6079z" fill="#444ce7" opacity=".25"/><g fill="#0c111d"><path d="m41 33v-19.683h14.256v3.753h-9.828v4.779h8.748v3.564h-8.748v7.587z"/><path d="m62.9529 33.27c-2.358 0-4.113-.675-5.265-2.025s-1.728-3.15-1.728-5.4v-.081c0-2.556.639-4.446 1.917-5.67 1.278-1.242 2.97-1.863 5.076-1.863 2.124 0 3.825.621 5.103 1.863 1.296 1.224 1.944 3.114 1.944 5.67v.081c-.018 2.25-.603 4.05-1.755 5.4s-2.916 2.025-5.292 2.025zm0-3.348c.918 0 1.611-.252 2.079-.756.486-.504.729-1.197.729-2.079v-2.592c0-.9-.252-1.602-.756-2.106-.486-.522-1.17-.783-2.052-.783-.864 0-1.548.261-2.052.783-.486.504-.729 1.206-.729 2.106v2.592c0 .882.234 1.575.702 2.079.486.504 1.179.756 2.079.756z"/><path d="m72.2643 33v-11.286c0-.99.297-1.773.891-2.349s1.368-.864 2.322-.864h5.913v3.348h-4.968v11.151z"/><path d="m89.5365 33.27c-1.602 0-2.943-.306-4.023-.918-1.062-.63-1.854-1.503-2.376-2.619-.522-1.134-.783-2.448-.783-3.942v-.243c0-1.566.288-2.889.864-3.969.576-1.098 1.377-1.926 2.403-2.484 1.044-.576 2.241-.864 3.591-.864 1.476 0 2.727.279 3.753.837 1.044.558 1.836 1.341 2.376 2.349s.81 2.187.81 3.537v1.836h-9.585v.756c0 .774.261 1.395.783 1.863.54.468 1.224.702 2.052.702.738 0 1.341-.162 1.809-.486.486-.324.774-.756.864-1.296h3.915c-.054.99-.36 1.854-.918 2.592s-1.314 1.314-2.268 1.728-2.043.621-3.267.621zm-2.97-9.18v.135h5.508v-.135c0-.972-.252-1.674-.756-2.106-.504-.45-1.161-.675-1.971-.675-.864 0-1.548.243-2.052.729-.486.468-.729 1.152-.729 2.052z"/><path d="m103.741 33.27c-2.07 0-3.654-.45-4.7524-1.35-1.08-.9-1.611-2.07-1.593-3.51h3.9694c.036.72.279 1.233.729 1.539.468.306 1.062.459 1.782.459s1.233-.135 1.539-.405c.324-.288.486-.63.486-1.026 0-.63-.225-1.044-.675-1.242-.45-.216-1.152-.396-2.106-.54-.864-.126-1.71-.324-2.538-.594-.8284-.27-1.5124-.693-2.0524-1.269-.522-.594-.783-1.404-.783-2.43 0-1.008.252-1.854.756-2.538.522-.702 1.233-1.233 2.1334-1.593.9-.36 1.935-.54 3.105-.54 1.782 0 3.222.396 4.32 1.188 1.116.792 1.692 1.908 1.728 3.348l-3.915-.027c0-.558-.198-.981-.594-1.269-.378-.306-.891-.459-1.539-.459-.63 0-1.107.126-1.431.378s-.486.585-.486.999c0 .576.261.954.783 1.134.54.18 1.215.333 2.025.459.684.09 1.35.216 1.998.378.648.144 1.233.378 1.755.702.54.324.963.774 1.269 1.35.306.558.459 1.296.459 2.214 0 1.422-.558 2.556-1.674 3.402-1.098.828-2.664 1.242-4.698 1.242z"/><path d="m112.515 33v-14.499h4.158v14.499zm0-16.335v-3.348h4.158v3.348z"/><path d="m125.636 37.779c-1.89 0-3.384-.405-4.482-1.215-1.08-.792-1.665-1.845-1.755-3.159h3.996c.09.468.36.828.81 1.08.468.27 1.053.405 1.755.405 1.08 0 1.845-.243 2.295-.729.468-.486.702-1.17.702-2.052v-2.511h-.189c-.36.81-.927 1.431-1.701 1.863-.774.414-1.638.621-2.592.621-1.854 0-3.24-.621-4.158-1.863-.9-1.242-1.35-2.898-1.35-4.968v-.108c0-2.286.486-4.005 1.458-5.157.972-1.17 2.331-1.755 4.077-1.755 1.134 0 2.043.216 2.727.648s1.197.99 1.539 1.674h.216l.216-2.052h3.915v13.122c0 2.124-.639 3.681-1.917 4.671-1.26.99-3.114 1.485-5.562 1.485zm.54-8.991c.882 0 1.566-.261 2.052-.783.486-.54.729-1.233.729-2.079v-1.512c0-.9-.252-1.602-.756-2.106-.504-.522-1.179-.783-2.025-.783-.882 0-1.566.252-2.052.756-.468.504-.702 1.197-.702 2.079v1.674c0 .864.252 1.539.756 2.025s1.17.729 1.998.729z"/><path d="m136.273 33v-19.683h4.158v7.56h.243c.306-.792.837-1.431 1.593-1.917s1.656-.729 2.7-.729c1.548 0 2.772.468 3.672 1.404s1.35 2.43 1.35 4.482v8.883h-4.131v-8.37c0-1.17-.234-1.971-.702-2.403s-1.098-.648-1.89-.648c-.936 0-1.647.306-2.133.918-.468.612-.702 1.431-.702 2.457v8.046z"/><path d="m158.027 33c-1.152 0-1.98-.297-2.484-.891-.486-.594-.729-1.368-.729-2.322v-7.938h-3.132v-3.348h3.132v-4.536h4.158v4.536h3.564v3.348h-3.564v7.911h3.402v3.24z"/></g></svg>